<svg width="95" height="53" viewBox="0 0 95 53" fill="none" xmlns="http://www.w3.org/2000/svg">
<path d="M33.2188 4.46875H33.9219V10.2305H33.1797C33.1146 10.0352 33.0365 9.79427 32.9453 9.50781C32.8542 9.20833 32.7435 8.85677 32.6133 8.45312C32.2487 7.3724 31.7995 6.58464 31.2656 6.08984C30.7318 5.59505 30.0156 5.34766 29.1172 5.34766C28.2969 5.34766 27.6263 5.55599 27.1055 5.97266C26.5846 6.38932 26.168 6.91667 25.8555 7.55469C25.556 8.17969 25.3477 8.86979 25.2305 9.625C25.1263 10.3672 25.0742 11.0703 25.0742 11.7344C25.0742 13.7526 25.3932 15.3281 26.0312 16.4609C26.6823 17.5807 27.7109 18.1406 29.1172 18.1406C29.8333 18.1406 30.4062 18.0365 30.8359 17.8281C31.2786 17.6198 31.6172 17.3529 31.8516 17.0273C32.0859 16.7018 32.2357 16.3372 32.3008 15.9336C32.3789 15.5169 32.418 15.1133 32.418 14.7227C32.418 14.3711 32.3854 14.0977 32.3203 13.9023C32.2682 13.694 32.1771 13.5443 32.0469 13.4531C31.9167 13.362 31.7409 13.3099 31.5195 13.2969C31.3112 13.2708 31.0573 13.2578 30.7578 13.2578H30.3672V12.3594H35.582V13.2578H35.1719C35.0677 13.2578 34.944 13.2708 34.8008 13.2969C34.6576 13.3099 34.5208 13.349 34.3906 13.4141C34.2604 13.4661 34.1497 13.5508 34.0586 13.668C33.9674 13.7721 33.9219 13.9154 33.9219 14.0977V19.1562H32.9453L32.8086 17.2617C32.3529 17.9258 31.7995 18.4076 31.1484 18.707C30.4974 19.0065 29.7422 19.1562 28.8828 19.1562C27.9062 19.1562 27.0404 18.9479 26.2852 18.5312C25.5299 18.1146 24.8984 17.5612 24.3906 16.8711C23.8828 16.168 23.4987 15.3737 23.2383 14.4883C22.9779 13.5898 22.8477 12.6719 22.8477 11.7344C22.8477 10.849 23.0039 9.96354 23.3164 9.07812C23.6289 8.19271 24.0586 7.39844 24.6055 6.69531C25.1654 5.99219 25.8294 5.41927 26.5977 4.97656C27.3659 4.53385 28.2057 4.3125 29.1172 4.3125C29.4167 4.3125 29.7227 4.35156 30.0352 4.42969C30.3607 4.50781 30.6732 4.625 30.9727 4.78125C31.2852 4.92448 31.5781 5.09375 31.8516 5.28906C32.125 5.48438 32.3659 5.69922 32.5742 5.93359L33.2188 4.46875ZM43.082 4.46875C44.6315 4.46875 45.8034 4.77474 46.5977 5.38672C47.4049 5.9987 47.8086 7.03385 47.8086 8.49219C47.8086 9.19531 47.7174 9.78776 47.5352 10.2695C47.3529 10.7383 47.099 11.1224 46.7734 11.4219C46.4609 11.7214 46.0833 11.9492 45.6406 12.1055C45.1979 12.2617 44.7227 12.3724 44.2148 12.4375C45.2565 12.763 45.9531 13.5508 46.3047 14.8008C46.3698 15.0221 46.4154 15.3086 46.4414 15.6602C46.4674 16.0117 46.5065 16.3568 46.5586 16.6953C46.6237 17.0208 46.7214 17.3008 46.8516 17.5352C46.9948 17.7695 47.2096 17.8867 47.4961 17.8867C47.6654 17.8867 47.8021 17.8411 47.9062 17.75C48.0104 17.6458 48.0885 17.5286 48.1406 17.3984C48.2057 17.2552 48.2448 17.112 48.2578 16.9688C48.2839 16.8125 48.2969 16.6758 48.2969 16.5586V16.4805H49.0781V16.6367C49.0781 17.6393 48.8698 18.3359 48.4531 18.7266C48.0365 19.1172 47.444 19.3125 46.6758 19.3125C46.207 19.3125 45.8294 19.2083 45.543 19C45.2695 18.7786 45.0547 18.4987 44.8984 18.1602C44.7422 17.8216 44.6315 17.4505 44.5664 17.0469C44.5013 16.6302 44.4492 16.2266 44.4102 15.8359C44.3581 15.276 44.2799 14.7943 44.1758 14.3906C44.0716 13.987 43.9284 13.6549 43.7461 13.3945C43.5768 13.1341 43.3555 12.9323 43.082 12.7891C42.8086 12.6458 42.4766 12.5547 42.0859 12.5156H40.3867V17.0273C40.3867 17.457 40.4844 17.75 40.6797 17.9062C40.888 18.0625 41.1094 18.1406 41.3438 18.1406H42.0469V19H36.832V18.1406H37.5547C37.7891 18.1406 38.0039 18.0625 38.1992 17.9062C38.3945 17.75 38.4922 17.457 38.4922 17.0273V6.44141C38.4922 6.01172 38.3945 5.71875 38.1992 5.5625C38.0039 5.40625 37.7891 5.32812 37.5547 5.32812H36.832V4.46875H43.082ZM43.082 5.38672C42.7174 5.36068 42.4115 5.34766 42.1641 5.34766C41.9167 5.33464 41.6432 5.32812 41.3438 5.32812C41.1094 5.32812 40.888 5.40625 40.6797 5.5625C40.4844 5.71875 40.3867 6.01172 40.3867 6.44141V11.5781H42.2812C43.5833 11.5781 44.5143 11.3372 45.0742 10.8555C45.6341 10.3737 45.9141 9.57943 45.9141 8.47266C45.9141 6.50651 44.9701 5.47786 43.082 5.38672ZM61.2461 4.46875V9.52734H60.4648C60.3477 8.61589 60.224 7.88672 60.0938 7.33984C59.9635 6.79297 59.7487 6.38281 59.4492 6.10938C59.1628 5.82292 58.7461 5.64062 58.1992 5.5625C57.6654 5.47135 56.9427 5.42578 56.0312 5.42578H55.5625C55.237 5.42578 54.9701 5.45182 54.7617 5.50391C54.5664 5.54297 54.4102 5.60807 54.293 5.69922C54.1758 5.79036 54.0911 5.89453 54.0391 6.01172C54 6.12891 53.9805 6.26562 53.9805 6.42188V11.1094H54.9375C55.7708 11.1094 56.3828 10.888 56.7734 10.4453C57.1641 9.98958 57.3919 9.26042 57.457 8.25781H58.2578V14.8984H57.457C57.457 12.9974 56.7344 12.0469 55.2891 12.0469H53.9805V17.0273C53.9805 17.3659 54.0846 17.6198 54.293 17.7891C54.5013 17.9583 54.9245 18.043 55.5625 18.043H56.0312C56.6432 18.043 57.1641 18.0299 57.5938 18.0039C58.0365 17.9648 58.4076 17.8997 58.707 17.8086C59.0195 17.7044 59.2669 17.5612 59.4492 17.3789C59.6445 17.1836 59.8008 16.9362 59.918 16.6367C60.0482 16.3372 60.1523 15.9661 60.2305 15.5234C60.3086 15.0807 60.3867 14.5534 60.4648 13.9414H61.2461V19H50.6602V18.1406H51.1484C51.3828 18.1406 51.5977 18.0625 51.793 17.9062C51.9883 17.75 52.0859 17.457 52.0859 17.0273V6.46094C52.0859 6.01823 51.9883 5.72526 51.793 5.58203C51.5977 5.42578 51.3828 5.34766 51.1484 5.34766H50.6602V4.46875H61.2461ZM73.4141 4.46875V9.52734H72.6328C72.5156 8.61589 72.3919 7.88672 72.2617 7.33984C72.1315 6.79297 71.9167 6.38281 71.6172 6.10938C71.3307 5.82292 70.9141 5.64062 70.3672 5.5625C69.8333 5.47135 69.1107 5.42578 68.1992 5.42578H67.7305C67.4049 5.42578 67.138 5.45182 66.9297 5.50391C66.7344 5.54297 66.5781 5.60807 66.4609 5.69922C66.3438 5.79036 66.2591 5.89453 66.207 6.01172C66.168 6.12891 66.1484 6.26562 66.1484 6.42188V11.1094H67.1055C67.9388 11.1094 68.5508 10.888 68.9414 10.4453C69.332 9.98958 69.5599 9.26042 69.625 8.25781H70.4258V14.8984H69.625C69.625 12.9974 68.9023 12.0469 67.457 12.0469H66.1484V17.0273C66.1484 17.3659 66.2526 17.6198 66.4609 17.7891C66.6693 17.9583 67.0924 18.043 67.7305 18.043H68.1992C68.8112 18.043 69.332 18.0299 69.7617 18.0039C70.2044 17.9648 70.5755 17.8997 70.875 17.8086C71.1875 17.7044 71.4349 17.5612 71.6172 17.3789C71.8125 17.1836 71.9688 16.9362 72.0859 16.6367C72.2161 16.3372 72.3203 15.9661 72.3984 15.5234C72.4766 15.0807 72.5547 14.5534 72.6328 13.9414H73.4141V19H62.8281V18.1406H63.3164C63.5508 18.1406 63.7656 18.0625 63.9609 17.9062C64.1562 17.75 64.2539 17.457 64.2539 17.0273V6.46094C64.2539 6.01823 64.1562 5.72526 63.9609 5.58203C63.7656 5.42578 63.5508 5.34766 63.3164 5.34766H62.8281V4.46875H73.4141ZM78.4336 4.46875L85.8164 15.3281H85.8555V6.46094C85.8555 6.01823 85.7513 5.72526 85.543 5.58203C85.3477 5.42578 85.1328 5.34766 84.8984 5.34766H84.1953V4.46875H88.668V5.34766H87.8867C87.6393 5.34766 87.418 5.42578 87.2227 5.58203C87.0273 5.72526 86.9297 6.01823 86.9297 6.46094V19.1562H86.0703L77.5938 6.89062L77.5352 6.94922V17.0273C77.5352 17.457 77.6328 17.75 77.8281 17.9062C78.0234 18.0625 78.2383 18.1406 78.4727 18.1406H79.1953V19H74.8398V18.1406H75.4844C75.7188 18.1406 75.9336 18.0625 76.1289 17.9062C76.3242 17.75 76.4219 17.457 76.4219 17.0273V5.97266L75.9727 5.34766H74.9961V4.46875H78.4336ZM33.4336 31.4688V36.5273H32.6523C32.5352 35.6159 32.4115 34.8867 32.2812 34.3398C32.151 33.793 31.9362 33.3828 31.6367 33.1094C31.3503 32.8229 30.9336 32.6406 30.3867 32.5625C29.8529 32.4714 29.1302 32.4258 28.2188 32.4258H27.75C27.4245 32.4258 27.1576 32.4518 26.9492 32.5039C26.7539 32.543 26.5977 32.6081 26.4805 32.6992C26.3633 32.7904 26.2786 32.8945 26.2266 33.0117C26.1875 33.1289 26.168 33.2656 26.168 33.4219V38.1094H27.125C27.9583 38.1094 28.5703 37.888 28.9609 37.4453C29.3516 36.9896 29.5794 36.2604 29.6445 35.2578H30.4453V41.8984H29.6445C29.6445 39.9974 28.9219 39.0469 27.4766 39.0469H26.168V44.0273C26.168 44.3659 26.2721 44.6198 26.4805 44.7891C26.6888 44.9583 27.112 45.043 27.75 45.043H28.2188C28.8307 45.043 29.3516 45.0299 29.7812 45.0039C30.224 44.9648 30.5951 44.8997 30.8945 44.8086C31.207 44.7044 31.4544 44.5612 31.6367 44.3789C31.832 44.1836 31.9883 43.9362 32.1055 43.6367C32.2357 43.3372 32.3398 42.9661 32.418 42.5234C32.4961 42.0807 32.5742 41.5534 32.6523 40.9414H33.4336V46H22.8477V45.1406H23.3359C23.5703 45.1406 23.7852 45.0625 23.9805 44.9062C24.1758 44.75 24.2734 44.457 24.2734 44.0273V33.4609C24.2734 33.0182 24.1758 32.7253 23.9805 32.582C23.7852 32.4258 23.5703 32.3477 23.3359 32.3477H22.8477V31.4688H33.4336ZM40.582 31.3125H41.207L46.0898 44.2422C46.2331 44.5938 46.4023 44.8281 46.5977 44.9453C46.806 45.0625 47.1055 45.1211 47.4961 45.1211V46H42.7109V45.1211C42.776 45.1211 42.8867 45.1211 43.043 45.1211C43.2122 45.1081 43.375 45.0885 43.5312 45.0625C43.7005 45.0234 43.8503 44.9648 43.9805 44.8867C44.1107 44.8086 44.1758 44.6979 44.1758 44.5547C44.1758 44.4896 44.1693 44.431 44.1562 44.3789C44.1432 44.3268 44.1237 44.2682 44.0977 44.2031L43.0039 41.2539H38.0234C37.9453 41.5013 37.8607 41.7617 37.7695 42.0352C37.6784 42.3086 37.5938 42.5755 37.5156 42.8359C37.4375 43.0833 37.3724 43.3112 37.3203 43.5195C37.2682 43.7148 37.2422 43.8646 37.2422 43.9688C37.2422 44.3854 37.3333 44.6849 37.5156 44.8672C37.6979 45.0365 38.0755 45.1211 38.6484 45.1211V46H34.5469V45.1211C34.9896 45.1211 35.3281 45.0104 35.5625 44.7891C35.8099 44.5547 36.0312 44.1445 36.2266 43.5586L40.582 31.3125ZM40.5039 34.3984L38.3555 40.3164H42.6914L40.5039 34.3984ZM54.7617 31.4688C56.3112 31.4688 57.4831 31.7747 58.2773 32.3867C59.0846 32.9987 59.4883 34.0339 59.4883 35.4922C59.4883 36.1953 59.3971 36.7878 59.2148 37.2695C59.0326 37.7383 58.7786 38.1224 58.4531 38.4219C58.1406 38.7214 57.763 38.9492 57.3203 39.1055C56.8776 39.2617 56.4023 39.3724 55.8945 39.4375C56.9362 39.763 57.6328 40.5508 57.9844 41.8008C58.0495 42.0221 58.0951 42.3086 58.1211 42.6602C58.1471 43.0117 58.1862 43.3568 58.2383 43.6953C58.3034 44.0208 58.401 44.3008 58.5312 44.5352C58.6745 44.7695 58.8893 44.8867 59.1758 44.8867C59.3451 44.8867 59.4818 44.8411 59.5859 44.75C59.6901 44.6458 59.7682 44.5286 59.8203 44.3984C59.8854 44.2552 59.9245 44.112 59.9375 43.9688C59.9635 43.8125 59.9766 43.6758 59.9766 43.5586V43.4805H60.7578V43.6367C60.7578 44.6393 60.5495 45.3359 60.1328 45.7266C59.7161 46.1172 59.1237 46.3125 58.3555 46.3125C57.8867 46.3125 57.5091 46.2083 57.2227 46C56.9492 45.7786 56.7344 45.4987 56.5781 45.1602C56.4219 44.8216 56.3112 44.4505 56.2461 44.0469C56.181 43.6302 56.1289 43.2266 56.0898 42.8359C56.0378 42.276 55.9596 41.7943 55.8555 41.3906C55.7513 40.987 55.6081 40.6549 55.4258 40.3945C55.2565 40.1341 55.0352 39.9323 54.7617 39.7891C54.4883 39.6458 54.1562 39.5547 53.7656 39.5156H52.0664V44.0273C52.0664 44.457 52.1641 44.75 52.3594 44.9062C52.5677 45.0625 52.7891 45.1406 53.0234 45.1406H53.7266V46H48.5117V45.1406H49.2344C49.4688 45.1406 49.6836 45.0625 49.8789 44.9062C50.0742 44.75 50.1719 44.457 50.1719 44.0273V33.4414C50.1719 33.0117 50.0742 32.7188 49.8789 32.5625C49.6836 32.4062 49.4688 32.3281 49.2344 32.3281H48.5117V31.4688H54.7617ZM54.7617 32.3867C54.3971 32.3607 54.0911 32.3477 53.8438 32.3477C53.5964 32.3346 53.3229 32.3281 53.0234 32.3281C52.7891 32.3281 52.5677 32.4062 52.3594 32.5625C52.1641 32.7188 52.0664 33.0117 52.0664 33.4414V38.5781H53.9609C55.263 38.5781 56.194 38.3372 56.7539 37.8555C57.3138 37.3737 57.5938 36.5794 57.5938 35.4727C57.5938 33.5065 56.6497 32.4779 54.7617 32.3867ZM73.0039 36.6641C72.9648 36.4036 72.9258 36.1432 72.8867 35.8828C72.8607 35.6224 72.8346 35.362 72.8086 35.1016C72.7435 34.6589 72.6458 34.2682 72.5156 33.9297C72.3984 33.5911 72.2227 33.3112 71.9883 33.0898C71.7539 32.8685 71.4544 32.7057 71.0898 32.6016C70.7383 32.4844 70.2956 32.4258 69.7617 32.4258C69.5534 32.4258 69.3906 32.4453 69.2734 32.4844C69.1562 32.5104 69.0651 32.569 69 32.6602C68.9479 32.7383 68.9154 32.862 68.9023 33.0312C68.8893 33.1875 68.8828 33.3958 68.8828 33.6562V43.6953C68.8828 44.3464 68.9284 44.724 69.0195 44.8281C69.1367 45.0104 69.4753 45.1016 70.0352 45.1016H70.5039V46H65.2695V45.1016L66.0508 45.0625C66.2591 45.0495 66.4219 45.0365 66.5391 45.0234C66.6562 44.9974 66.7409 44.9453 66.793 44.8672C66.8581 44.7891 66.8971 44.6719 66.9102 44.5156C66.9362 44.3464 66.9492 44.125 66.9492 43.8516V33.3438C66.9492 32.9922 66.8971 32.7513 66.793 32.6211C66.6888 32.4909 66.4284 32.4258 66.0117 32.4258C64.7227 32.4258 63.8763 32.7578 63.4727 33.4219C63.3945 33.5651 63.2969 33.9036 63.1797 34.4375C63.0755 34.9583 62.9518 35.681 62.8086 36.6055H62.1055V31.4688H73.6094V36.6641H73.0039ZM80.1914 31.4688V32.3477H79.4883C79.2539 32.3477 79.0326 32.4258 78.8242 32.582C78.6289 32.7253 78.5312 33.0182 78.5312 33.4609V37.7773H84.8594V33.4609C84.8594 33.0182 84.7617 32.7253 84.5664 32.582C84.3711 32.4258 84.1497 32.3477 83.9023 32.3477H83.1992V31.4688H88.4141V32.3477H87.6914C87.457 32.3477 87.2422 32.4258 87.0469 32.582C86.8516 32.7253 86.7539 33.0182 86.7539 33.4609V44.0273C86.7539 44.457 86.8516 44.75 87.0469 44.9062C87.2422 45.0625 87.457 45.1406 87.6914 45.1406H88.4141V46H83.1992V45.1406H83.9023C84.1497 45.1406 84.3711 45.0625 84.5664 44.9062C84.7617 44.75 84.8594 44.457 84.8594 44.0273V39.0469H78.5312V44.0273C78.5312 44.457 78.6289 44.75 78.8242 44.9062C79.0326 45.0625 79.2539 45.1406 79.4883 45.1406H80.1914V46H74.9766V45.1406H75.6992C75.9336 45.1406 76.1484 45.0625 76.3438 44.9062C76.5391 44.75 76.6367 44.457 76.6367 44.0273V33.4609C76.6367 33.0182 76.5391 32.7253 76.3438 32.582C76.1484 32.4258 75.9336 32.3477 75.6992 32.3477H74.9766V31.4688H80.1914Z" fill="white"/>
<rect x="6" y="34" width="2" height="8" fill="white"/>
<path d="M2.14438 33.25L6.87056 10.0166L11.5967 33.25H2.14438Z" stroke="white" stroke-width="2"/>
</svg>
